<svg enable-background="new 0 0 140 140" height="512" viewBox="0 0 140 140" width="512" xmlns="http://www.w3.org/2000/svg"><circle cx="70" cy="70" fill="#ffd25a" r="64"/><path d="m133.7000122 63.9199219c.1900024 2 .2999878 4.0302734.2999878 6.0800781 0 35.3500977-28.6500244 64-64 64-2.3300171 0-4.6199951-.1298828-6.8800049-.3701172l-35.3300171-35.3300781v-46.9799805h56.3600464c-.1100464-.7397461-.1900024-1.4897461-.1900024-2.2597656 0-7.9799805 6.4699707-14.4501953 14.4499512-14.4501953 4.2000122 0 7.960022 1.800293 10.6000366 4.6601562l.0100098-.0102539z" opacity=".1"/><path d="m27.786638 51.317852h76.291824v46.981998h-76.291824z" fill="#4388b9"/><path d="m27.7866383 98.2998505v-46.9819985l38.1459102 23.4909935z" fill="#4893ca"/><path d="m104.0784683 51.317852v46.9819985l-38.1459198-23.491005z" fill="#4893ca"/><path d="m27.7866383 51.317852 38.1456813 32.6316033 38.1461487-32.6316033z" fill="#509fd7"/><path d="m94.1678162 59.0383453c-3.2680283 2.6151085-6.5277405 5.2399597-9.7579269 7.8992081-6.2213364 5.0860443-12.358696 10.2695389-18.4777145 15.4751053-6.1204491-5.2035599-12.2580948-10.3873444-18.479435-15.4725266-3.2301903-2.6595306-6.4896164-5.2840996-9.7579231-7.8992081-3.3044243-2.572113-6.5575428-5.2047081-9.9081135-7.7232246 3.0069141 2.9203568 6.1112766 5.7263527 9.1643391 8.5928268 3.0897446 2.8234787 6.1875153 5.6375008 9.3150978 8.4165535 6.2359543 5.5810318 12.5610504 11.057457 18.9033394 16.5138168l.7626953.6560669.7629776-.6560669c6.3442993-5.454071 12.6693954-10.9307785 18.9059219-16.5112381 3.1272964-2.7793427 6.2253494-5.5930748 9.3151016-8.4165535 3.0519104-2.8676186 6.1565628-5.6736145 9.1623306-8.5954056-3.352005 2.5170862-6.6051255 5.1496774-9.9106903 7.720646z" fill="#32729b"/><circle cx="98.406" cy="49.059" fill="#dc594e" r="14.447"/><path d="m95.3131485 56.1117401c-.5117188 0-1.0234375-.1953125-1.4140625-.5859375l-3.9179688-3.9179688c-.78125-.78125-.78125-2.046875 0-2.828125s2.046875-.78125 2.828125 0l2.5039062 2.5039062 8.6904297-8.6904297c.78125-.78125 2.046875-.78125 2.828125 0s.78125 2.046875 0 2.828125l-10.1044921 10.1044923c-.390625.390625-.9023438.5859375-1.4140625.5859375z" fill="#fff"/></svg>